<svg width="144" height="129" viewBox="0 0 144 129" fill="none" xmlns="http://www.w3.org/2000/svg">
<path fill-rule="evenodd" clip-rule="evenodd" d="M11.1068 54.9824L13.7287 62.2114H22.2136L15.3492 66.6791L17.9712 73.9081L11.1068 69.4404L4.24235 73.9081L6.86427 66.6791L0 62.2114H8.48488L11.1068 54.9824Z" fill="#FFD800"/>
<path fill-rule="evenodd" clip-rule="evenodd" d="M38.3204 54.9824L40.9423 62.2114H49.4272L42.5628 66.6791L45.1849 73.9081L38.3204 69.4404L31.456 73.9081L34.0779 66.6791L27.2136 62.2114H35.6985L38.3204 54.9824Z" fill="#FFD800"/>
<path fill-rule="evenodd" clip-rule="evenodd" d="M65.534 54.9824L68.156 62.2114H76.6408L69.7764 66.6791L72.3985 73.9081L65.534 69.4404L58.6696 73.9081L61.2915 66.6791L54.4272 62.2114H62.9121L65.534 54.9824Z" fill="#FFD800"/>
<path fill-rule="evenodd" clip-rule="evenodd" d="M92.7477 54.9824L95.3696 62.2114H103.854L96.99 66.6791L99.6121 73.9081L92.7477 69.4404L85.8832 73.9081L88.5051 66.6791L81.6409 62.2114H90.1257L92.7477 54.9824Z" fill="#FFD800"/>
<path fill-rule="evenodd" clip-rule="evenodd" d="M119.961 54.9824L122.583 62.2114H131.068L124.204 66.6791L126.826 73.9081L119.961 69.4404L113.097 73.9081L115.719 66.6791L108.854 62.2114H117.339L119.961 54.9824Z" fill="#FFD800"/>
</svg>
